<svg xmlns="http://www.w3.org/2000/svg" aria-hidden="true" style="position:absolute;width:0;height:0;overflow:hidden"><defs>

<symbol id="people" viewBox="0 0 32 32"><path d="M15.666 5.333c-.987 0-1.789.803-1.789 1.789v.434c0 .986.802 1.789 1.789 1.789h.001c.478 0 .927-.186 1.265-.524s.525-.787.525-1.265v-.433c0-.478-.186-.927-.524-1.265s-.787-.525-1.265-.525zm0 4.68za2.46 2.46 0 0 1-2.455-2.456v-.434a2.46 2.46 0 0 1 2.456-2.456c.656.001 1.273.256 1.737.72s.719 1.081.719 1.737v.433c0 .656-.256 1.273-.72 1.737s-1.08.719-1.736.719M13.671 27.862h-.667l.001-13.666h.667zM18.324 27.862h-.667l.001-13.666h.667zM15.998 27.862h-.667l.001-8.611h.667z"/><path d="M19.162 19.585h-1.17v-.667h1.17a.44.44 0 0 0 .439-.439v-5.347a1.62 1.62 0 0 0-1.111-1.539 9.03 9.03 0 0 0-5.649-.001 1.62 1.62 0 0 0-1.111 1.539l-.001 5.347a.44.44 0 0 0 .439.439h1.17v.667h-1.171a1.11 1.11 0 0 1-1.105-1.107l.001-5.347c0-.988.63-1.861 1.568-2.172a9.7 9.7 0 0 1 6.069.001 2.28 2.28 0 0 1 1.567 2.172v5.347c0 .61-.496 1.106-1.106 1.106zM24.061 6.815a1.79 1.79 0 0 0-1.789 1.789v.434c0 .477.186.927.524 1.265s.787.524 1.265.524c.987 0 1.789-.803 1.789-1.789v-.433c0-.987-.803-1.789-1.789-1.789zm0 4.678c-.657 0-1.273-.256-1.737-.719s-.719-1.081-.719-1.737v-.434c0-1.354 1.102-2.455 2.456-2.455s2.456 1.101 2.456 2.456v.433a2.46 2.46 0 0 1-2.456 2.456M7.27 6.813c-.477 0-.927.186-1.265.524s-.524.787-.524 1.265v.433c0 .987.803 1.789 1.789 1.789s1.789-.803 1.79-1.789v-.434c0-.987-.803-1.789-1.789-1.789zm0 4.678a2.46 2.46 0 0 1-2.455-2.456v-.433c0-.657.255-1.273.719-1.737s1.081-.719 1.736-.719h.001a2.46 2.46 0 0 1 2.456 2.456v.434a2.46 2.46 0 0 1-2.457 2.455M26.719 27.863h-.667l.001-12.185h.667z"/><path d="M27.557 21.065h-1.17v-.667h1.17a.44.44 0 0 0 .439-.439l.001-5.348c0-.7-.447-1.319-1.111-1.539a9.04 9.04 0 0 0-5.65-.001l-.21-.633a9.7 9.7 0 0 1 6.069.001 2.285 2.285 0 0 1 1.568 2.172l-.001 5.348c0 .609-.496 1.105-1.106 1.105zM22.067 27.863H21.4l.001-12.186h.667zM24.393 27.863h-.667l.001-7.131h.667zM5.275 27.861h-.667l.001-12.186h.667zM7.602 27.861h-.667l.001-7.131h.667zM9.928 27.861h-.666l.001-12.186h.667z"/><path d="M4.943 21.063h-1.17c-.61 0-1.106-.496-1.106-1.105l.001-5.347c0-.989.63-1.861 1.568-2.172a9.7 9.7 0 0 1 6.069.001l-.21.633a9.03 9.03 0 0 0-5.649-.001 1.62 1.62 0 0 0-1.111 1.539l-.001 5.347a.44.44 0 0 0 .439.439h1.17v.667z"/></symbol>

<symbol id="phone" viewBox="0 0 32 32"><path fill="#fff" d="M30.222 22.222q-3.2 0-6.4-1.067c-.533-.178-1.244 0-1.778.356l-3.911 3.911C13.155 22.933 9.066 18.666 6.4 13.689l3.911-3.911c.533-.533.711-1.244.356-1.778-.533-1.956-.889-4.089-.889-6.222C9.778.711 9.067 0 8 0H1.778C.711 0 0 .711 0 1.778 0 18.489 13.511 32 30.222 32 31.289 32 32 31.289 32 30.222V24c0-1.067-.711-1.778-1.778-1.778M28.444 16H32c0-8.889-7.111-16-16-16v3.556c6.933 0 12.444 5.511 12.444 12.444m-7.111 0h3.556c0-4.978-3.911-8.889-8.889-8.889v3.556c3.022 0 5.333 2.311 5.333 5.333" style="fill:var(--color1, #fff)"/></symbol>

<symbol id="shape" viewBox="0 0 40 32"><path fill="#fff" d="M36 0H4C1.8 0 0 1.8 0 4v24c0 2.2 1.8 4 4 4h32c2.2 0 4-1.8 4-4V4c0-2.2-1.8-4-4-4m0 28h-4V10.4L20 18 8 10.4V28H4V4h2.4L20 12.4 33.6 4H36z" style="fill:var(--color1, #fff)"/></symbol>
 
 <symbol id="message1" viewBox="0 0 32 32"><path d="M26.667 2.667H5.334a2.675 2.675 0 0 0-2.667 2.667v24L8 24.001h18.667c1.467 0 2.667-1.2 2.667-2.667v-16c0-1.467-1.2-2.667-2.667-2.667m0 18.666H6.934l-1.6 1.6v-17.6h21.333zm-4-6.666H20V12h2.667zm-5.334 0h-2.667V12h2.667zm-5.333 0H9.333V12H12z"/></symbol><symbol id="icon-chat-dots-svgrepo-com" viewBox="0 0 32 32"><path d="M26.667 2.667H5.334a2.675 2.675 0 0 0-2.667 2.667v24L8 24.001h18.667c1.467 0 2.667-1.2 2.667-2.667v-16c0-1.467-1.2-2.667-2.667-2.667m0 18.666H6.934l-1.6 1.6v-17.6h21.333zm-4-6.666H20V12h2.667zm-5.334 0h-2.667V12h2.667zm-5.333 0H9.333V12H12z"/></symbol>

<symbol id="message-square" viewBox="0 0 29 32">
<path d="M19.566 5.909h-10.045c-2.236 0-4.066 1.83-4.066 4.066v7.176c0 2.236 1.83 4.066 4.066 4.066h3.159c-0.452 1.788-0.999 3.395-2.671 4.877 3.197-0.817 5.665-2.471 7.477-4.877h0.546c2.236 0 5.601-1.83 5.601-4.066v-7.176c-0.001-2.236-1.83-4.066-4.066-4.066v0zM19.071 12.353c-0.815 0-1.475 0.661-1.475 1.476s0.661 1.476 1.475 1.476c0.815 0 1.476-0.661 1.476-1.476s-0.661-1.476-1.476-1.476v0zM10.017 12.353c-0.815 0-1.476 0.661-1.476 1.476s0.661 1.476 1.476 1.476c0.815 0 1.476-0.661 1.476-1.476s-0.661-1.476-1.476-1.476v0zM14.544 12.353c-0.815 0-1.476 0.661-1.476 1.476s0.661 1.476 1.476 1.476c0.815 0 1.475-0.661 1.475-1.476s-0.661-1.476-1.476-1.476v0zM9.521 5l10.047 0.003c1.371 0.001 2.615 0.558 3.513 1.457l-0.002 0.002c0.9 0.901 1.459 2.144 1.459 3.513h0.003v0.001h-0.003v7.176h0.003v0.001h-0.003c-0.001 1.463-1.017 2.737-2.37 3.628-1.26 0.828-2.852 1.344-4.137 1.344v0.003h-0.001v-0.003h-0.103c-0.907 1.13-1.959 2.094-3.165 2.885-1.333 0.875-2.84 1.535-4.531 1.967l-0.001-0.003c-0.318 0.080-0.669-0.015-0.901-0.278-0.332-0.375-0.296-0.948 0.078-1.279 0.737-0.654 1.226-1.334 1.58-2.047 0.197-0.397 0.356-0.812 0.493-1.243h-1.962v-0.003c-1.371-0.001-2.614-0.558-3.513-1.457s-1.457-2.143-1.457-3.514h-0.003v-0.001h0.003v-7.176h-0.003v-0.001h0.003c0-1.343 0.538-2.564 1.407-3.459 0.016-0.018 0.032-0.037 0.050-0.054 0.899-0.899 2.143-1.457 3.514-1.458v-0.003h0.001z"></path>
</symbol>

<symbol id="insta" viewBox="0 0 32 32"><path d="M31.969 9.408c-.075-1.7-.35-2.869-.744-3.882a7.8 7.8 0 0 0-1.85-2.838A7.9 7.9 0 0 0 26.543.844C25.524.45 24.361.175 22.661.1 20.948.019 20.404 0 16.06 0s-4.888.019-6.595.094c-1.7.075-2.869.35-3.882.744a7.8 7.8 0 0 0-2.838 1.85A7.9 7.9 0 0 0 .901 5.52C.507 6.539.232 7.702.157 9.402c-.081 1.713-.1 2.257-.1 6.601s.019 4.888.094 6.595c.075 1.7.35 2.869.744 3.882a7.9 7.9 0 0 0 1.85 2.838 7.9 7.9 0 0 0 2.832 1.844c1.019.394 2.182.669 3.882.744 1.706.075 2.25.094 6.595.094s4.888-.019 6.595-.094c1.7-.075 2.869-.35 3.882-.744a8.18 8.18 0 0 0 4.682-4.682c.394-1.019.669-2.182.744-3.882.075-1.707.094-2.25.094-6.595s-.006-4.888-.081-6.595zm-2.882 13.065c-.069 1.563-.331 2.407-.55 2.969a5.3 5.3 0 0 1-3.038 3.038c-.563.219-1.413.481-2.969.55-1.688.075-2.194.094-6.464.094s-4.782-.019-6.464-.094c-1.563-.069-2.407-.331-2.969-.55a4.9 4.9 0 0 1-1.838-1.194 5 5 0 0 1-1.194-1.838c-.219-.563-.481-1.413-.55-2.969-.075-1.688-.094-2.194-.094-6.464s.019-4.782.094-6.464c.069-1.563.331-2.407.55-2.969a4.9 4.9 0 0 1 1.2-1.838A5 5 0 0 1 6.639 3.55c.563-.219 1.413-.481 2.969-.55 1.688-.075 2.194-.094 6.464-.094 4.276 0 4.782.019 6.464.094 1.563.069 2.407.331 2.969.55a4.9 4.9 0 0 1 1.838 1.194 5 5 0 0 1 1.194 1.838c.219.563.481 1.413.55 2.969.075 1.688.094 2.194.094 6.464s-.019 4.77-.094 6.458"/><path d="M16.059 7.783c-4.538 0-8.22 3.682-8.22 8.22s3.682 8.22 8.22 8.22 8.22-3.682 8.22-8.22-3.682-8.22-8.22-8.22m0 13.552a5.333 5.333 0 0 1 0-10.664 5.333 5.333 0 0 1 0 10.664M26.524 7.458a1.919 1.919 0 1 1-3.838 0 1.919 1.919 0 0 1 3.838 0"/></symbol>

<symbol id="facebook" viewBox="0 0 16 28"><path d="M14.984.187v4.125h-2.453c-1.922 0-2.281.922-2.281 2.25v2.953h4.578l-.609 4.625H10.25v11.859H5.469V14.14H1.485V9.515h3.984V6.109C5.469 2.156 7.891 0 11.422 0c1.687 0 3.141.125 3.563.187z"/></symbol>

<symbol id="x" viewBox="0 0 32 32"><path d="M24.325 3h4.411L19.1 14.013 30.436 29H21.56l-6.952-9.089L6.653 29H2.24l10.307-11.78L1.672 3h9.101l6.284 8.308zm-1.548 23.36h2.444L9.445 5.501H6.822z"/></symbol>
</defs></svg>